<svg width="35" height="42" viewBox="0 0 35 42" fill="none" xmlns="http://www.w3.org/2000/svg">
<path d="M33.1243 19.6264L2.92232 1.57886C2.12976 1.10526 1.73349 0.868459 1.40752 0.899257C1.12329 0.926112 0.864082 1.07318 0.695228 1.3034C0.501587 1.56741 0.501587 2.02905 0.501587 2.95232V39.0473C0.501587 39.9706 0.501587 40.4323 0.695228 40.6963C0.864082 40.9265 1.12329 41.0736 1.40752 41.1004C1.73349 41.1312 2.12976 40.8944 2.92232 40.4208L33.1243 22.3733L33.1243 22.3733C33.882 21.9205 34.2608 21.6941 34.3892 21.4011C34.5012 21.1453 34.5012 20.8544 34.3892 20.5986C34.2608 20.3055 33.882 20.0791 33.1243 19.6264Z" fill="white"/>
</svg>
