<svg width="60" height="60" viewBox="0 0 60 60" fill="none" xmlns="http://www.w3.org/2000/svg">
<rect width="60" height="60" fill="white"/>
<circle cx="37.8303" cy="20.8328" r="6.06569" stroke="#313E48" stroke-width="2"/>
<path d="M42.2461 26.1321L45.9997 29.8857" stroke="#313E48" stroke-width="2"/>
<path fill-rule="evenodd" clip-rule="evenodd" d="M41.2662 29.9231C40.198 30.3271 39.0399 30.5482 37.8302 30.5482C32.765 30.5482 28.6051 26.6719 28.1552 21.7239C26.2635 21.7596 24.3755 21.9162 22.5439 22.1937C21.4824 22.3636 20.5907 23.2977 20.4633 23.51L18.8073 26.5673L16.3445 26.907C16.0897 26.9495 15.75 27.2043 15.75 27.5015V28.1384C15.75 28.3932 15.9623 28.648 16.2595 28.648H17.7033C17.6813 28.67 17.6523 28.6961 17.6177 28.7273C17.2517 29.0572 16.2559 29.9551 16.2171 32.5545C16.1746 34.9324 16.1746 37.3102 16.1746 39.6881C16.1746 40.1127 16.5143 40.4949 16.9814 40.4949H20.5058C20.9304 40.4949 21.3125 40.1127 21.3125 39.6881V38.7539C26.408 39.0512 31.5459 39.0512 36.6838 38.7539V39.6881C36.6838 40.1127 37.0235 40.4949 37.4906 40.4949H41.0149C41.4396 40.4949 41.7793 40.1127 41.7793 39.6881V32.5545C41.7613 31.3492 41.5375 30.5098 41.2662 29.9231ZM37.7454 33.4249C38.5415 33.2869 39.3377 33.1489 40.1232 32.9791C40.2082 33.1489 40.2082 33.3613 40.1657 33.7434C39.8685 34.2105 39.4863 34.5927 39.0192 34.7625L39.0186 34.7626C37.4902 35.0173 35.9618 35.2721 34.4758 35.5268C34.4333 35.2296 34.4333 34.9748 34.4758 34.805C34.6881 34.3803 34.9853 34.0831 35.3675 33.8708C36.153 33.701 36.9492 33.563 37.7454 33.4249ZM20.1786 33.4134C19.3992 33.2792 18.6149 33.1442 17.8306 32.9791C17.7882 33.1489 17.7882 33.3613 17.8306 33.7434C18.0854 34.2105 18.4676 34.5927 18.9771 34.7625C19.7414 34.8899 20.495 35.0173 21.2487 35.1446C22.0024 35.272 22.7562 35.3994 23.5206 35.5268C23.563 35.2296 23.563 34.9748 23.4781 34.805C23.2658 34.3803 22.9686 34.0831 22.6289 33.8708C21.8214 33.6962 21.0027 33.5553 20.1786 33.4134Z" fill="#313E48"/>
</svg>
