<svg width="36" height="35" viewBox="0 0 36 35" fill="none" xmlns="http://www.w3.org/2000/svg">
<path d="M17.0753 1.2468C17.4152 0.42094 18.5848 0.420939 18.9247 1.2468L23.0204 11.1978C23.1641 11.5471 23.4923 11.7855 23.8689 11.8143L34.5985 12.6345C35.489 12.7025 35.8505 13.815 35.1701 14.3934L26.9717 21.3637C26.684 21.6083 26.5586 21.9941 26.6476 22.3612L29.1832 32.8191C29.3936 33.687 28.4474 34.3745 27.6869 33.9062L18.5244 28.263C18.2029 28.0649 17.7971 28.0649 17.4756 28.263L8.31306 33.9062C7.55264 34.3745 6.60637 33.687 6.8168 32.8191L9.35243 22.3612C9.44142 21.9941 9.31605 21.6083 9.02832 21.3637L0.829946 14.3934C0.149542 13.815 0.510987 12.7025 1.40147 12.6345L12.1311 11.8143C12.5077 11.7855 12.8359 11.5471 12.9796 11.1978L17.0753 1.2468Z" fill="#F5BF00"/>
</svg>
