<svg width="59" height="39" viewBox="0 0 59 39" fill="none" xmlns="http://www.w3.org/2000/svg">
<path d="M15.0159 15.7657C21.0507 12.2815 24.1814 6.78792 22.1434 3.25803C16.9915 -4.88808 -3.86033 7.15606 0.620161 15.6845C2.65781 19.2138 8.98166 19.2496 15.0159 15.7657ZM17.5666 4.79119C19.5412 3.69289 20.466 5.29469 18.5276 6.45563C16.5529 7.55393 15.6281 5.95213 17.5666 4.79119ZM10.212 7.44376C15.0436 4.77796 17.2773 8.64812 12.5531 11.4987C7.7214 14.1645 5.48772 10.2943 10.212 7.44376ZM4.23745 12.4868C6.21208 11.3885 7.13688 12.9903 5.19841 14.1512C3.22377 15.2495 2.29897 13.6477 4.23745 12.4868Z" fill="#313E48"/>
<path d="M15.6733 16.9048C15.1756 17.1921 14.6771 17.4504 14.1793 17.6929L21.3331 30.0837C21.3802 30.1651 21.406 30.2519 21.4157 30.3397C22.4525 29.8565 23.5008 29.2513 24.4376 28.595C24.3664 28.5427 24.3042 28.4769 24.2572 28.3955L17.1034 16.0047C16.6439 16.3148 16.171 16.6175 15.6733 16.9048Z" fill="#8CA1B2"/>
<path d="M18.1776 15.2352L25.3958 27.7376C25.4188 27.7774 25.4241 27.8207 25.4378 27.8629C26.4507 27.0754 27.3463 26.2318 28.1051 25.3632C27.9668 25.3117 27.8421 25.222 27.7626 25.0842L20.7363 12.9144C19.993 13.7217 19.1395 14.5014 18.1776 15.2352Z" fill="#8CA1B2"/>
<path d="M21.6422 11.8536L28.8867 24.4015C30.6988 21.9644 31.3808 19.4661 30.4647 17.6717L24.0263 6.51999C23.8227 8.26611 23.0032 10.1013 21.6422 11.8536Z" fill="#8CA1B2"/>
<path d="M15.5591 32.0959L8.3146 19.548C6.11606 19.8508 4.11717 19.642 2.50317 18.9453L8.9416 30.097C10.0376 31.7875 12.5428 32.4472 15.5591 32.0959Z" fill="#8CA1B2"/>
<path d="M9.68671 19.2941L16.713 31.464C16.7925 31.6018 16.8073 31.7549 16.7828 31.9005C17.9144 31.6776 19.0927 31.3238 20.2812 30.8403C20.1306 30.7268 13.0832 18.3756 12.9754 18.2389C11.8595 18.7048 10.7575 19.054 9.68671 19.2941Z" fill="#8CA1B2"/>
<path d="M23.6226 30.6737C18.807 33.454 13.8383 34.2044 10.5918 32.9553C15.2803 42.3423 37.901 29.2761 32.1151 20.5288C31.5737 23.9649 28.4389 27.8931 23.6226 30.6737Z" fill="#313E48"/>
<path d="M53.3194 29.91L41.9061 23.3206C41.5306 23.1037 41.0842 23.0449 40.6653 23.1572C40.2464 23.2694 39.8892 23.5435 39.6724 23.9191C39.4555 24.2947 39.3968 24.741 39.509 25.1599C39.6213 25.5789 39.8953 25.936 40.2709 26.1529L40.7995 26.458L39.4456 28.803L43.2614 31.006L42.8645 31.6933C42.6965 31.9844 42.651 32.3303 42.7379 32.6549C42.8249 32.9796 43.0373 33.2563 43.3284 33.4244L43.7974 33.6952C44.0884 33.8632 44.4343 33.9087 44.759 33.8218C45.0836 33.7348 45.3604 33.5224 45.5284 33.2313L45.9253 32.544L46.8992 33.1063C46.6015 33.8492 46.2029 34.3483 45.6916 34.6184C44.6256 35.1816 42.7974 34.9696 40.2577 33.9884L39.0654 37.0741C42.5865 38.4345 45.2594 38.588 47.2368 37.5434C48.4371 36.9094 49.3427 35.8544 49.942 34.399L51.0949 32.4021L51.6842 32.7423C52.0598 32.9592 52.5061 33.0179 52.9251 32.9057C53.344 32.7934 53.7011 32.5194 53.918 32.1438C54.1348 31.7682 54.1936 31.3219 54.0813 30.9029C53.9691 30.484 53.695 30.1269 53.3194 29.91Z" fill="#313E48"/>
<path d="M56.4141 21.0162L57.721 16.2021L51.5767 12.6547L48.0611 16.1936L44.0163 23.1995L52.3692 28.0221L56.4141 21.0162Z" fill="#8CA1B2"/>
<path d="M52.8474 11.7631L57.8579 14.6559C58.0189 14.7488 58.2102 14.774 58.3898 14.7259C58.5694 14.6778 58.7225 14.5603 58.8154 14.3993C58.9084 14.2383 58.9336 14.047 58.8854 13.8674C58.8373 13.6878 58.7198 13.5347 58.5588 13.4418L57.0777 12.5866L58.31 10.4522C58.3876 10.3177 58.438 10.1692 58.4583 10.0153C58.4786 9.86133 58.4683 9.70489 58.4281 9.5549C58.3879 9.40491 58.3186 9.26431 58.224 9.14111C58.1295 9.01792 58.0116 8.91455 57.8772 8.83691C57.6056 8.68011 57.2828 8.63762 56.9799 8.71878C56.677 8.79995 56.4187 8.99813 56.2619 9.26972L55.0296 11.4042L53.5484 10.549C53.3874 10.456 53.1961 10.4308 53.0165 10.479C52.8369 10.5271 52.6838 10.6446 52.5909 10.8056C52.4979 10.9666 52.4727 11.1579 52.5208 11.3375C52.569 11.517 52.6864 11.6701 52.8474 11.7631Z" fill="#313E48"/>
</svg>
