<svg width="40" height="40" viewBox="0 0 40 40" fill="none" xmlns="http://www.w3.org/2000/svg">
<circle cx="20" cy="20" r="20" fill="#313E48"/>
<path d="M19.1998 4.8C19.1998 4.3582 19.5576 4 19.9998 4C20.4419 4 20.7998 4.3582 20.7998 4.8V6.47773C20.7998 6.91953 20.4419 7.27773 19.9998 7.27773C19.5576 7.27773 19.1998 6.91953 19.1998 6.47773V4.8ZM6.3021 20.8H4.79976C4.35757 20.8 3.99976 20.4418 3.99976 20C3.99976 19.5582 4.35757 19.2 4.79976 19.2H6.3021C6.74429 19.2 7.1021 19.5582 7.1021 20C7.1021 20.4418 6.74429 20.8 6.3021 20.8ZM10.8794 30.2516L9.81772 31.3133C9.66147 31.4695 9.45679 31.5477 9.2521 31.5477C9.04741 31.5477 8.84272 31.4695 8.68647 31.3133C8.37397 31.0008 8.37397 30.4945 8.68647 30.182L9.74819 29.1203C10.0607 28.8078 10.5669 28.8078 10.8794 29.1203C11.1919 29.4328 11.1919 29.9391 10.8794 30.2516ZM10.8794 10.8793C10.7232 11.0355 10.5185 11.1137 10.3138 11.1137C10.1091 11.1137 9.90444 11.0355 9.74819 10.8793L8.68647 9.81758C8.37397 9.50508 8.37397 8.99883 8.68647 8.68633C8.99897 8.37383 9.50522 8.37383 9.81772 8.68633L10.8794 9.74805C11.1919 10.0605 11.1919 10.5668 10.8794 10.8793ZM20.7998 35.2C20.7998 35.6422 20.4419 36 19.9998 36C19.5576 36 19.1998 35.6422 19.1998 35.2V33.6977C19.1998 33.2555 19.5576 32.8977 19.9998 32.8977C20.4419 32.8977 20.7998 33.2555 20.7998 33.6977V35.2ZM24.7998 20.8H19.9998C19.5576 20.8 19.1998 20.4418 19.1998 20V12.8C19.1998 12.3582 19.5576 12 19.9998 12C20.4419 12 20.7998 12.3582 20.7998 12.8V19.2H24.7998C25.2419 19.2 25.5998 19.5582 25.5998 20C25.5998 20.4418 25.2419 20.8 24.7998 20.8ZM31.3138 31.3133C31.1576 31.4695 30.9529 31.5477 30.7482 31.5477C30.5435 31.5477 30.3388 31.4695 30.1826 31.3133L28.9958 30.1273C28.6833 29.8156 28.6833 29.3086 28.9958 28.9961C29.3083 28.6836 29.8146 28.6836 30.1271 28.9961L31.3138 30.182C31.6263 30.4938 31.6263 31.0008 31.3138 31.3133ZM31.3138 9.81758L30.1271 11.0039C29.9708 11.1602 29.7662 11.2383 29.5615 11.2383C29.3568 11.2383 29.1521 11.1602 28.9958 11.0039C28.6833 10.6914 28.6833 10.1848 28.9958 9.87266L30.1826 8.68633C30.4951 8.37383 31.0013 8.37383 31.3138 8.68633C31.6263 8.99883 31.6263 9.50547 31.3138 9.81758ZM35.1998 20.8H33.5224C33.0802 20.8 32.7224 20.4418 32.7224 20C32.7224 19.5582 33.0802 19.2 33.5224 19.2H35.1998C35.6419 19.2 35.9998 19.5582 35.9998 20C35.9998 20.4418 35.6419 20.8 35.1998 20.8Z" fill="#D9E2EA"/>
</svg>
