<?xml version="1.0" standalone="no"?>
<!DOCTYPE svg PUBLIC "-//W3C//DTD SVG 20010904//EN"
 "http://www.w3.org/TR/2001/REC-SVG-20010904/DTD/svg10.dtd">
<svg version="1.0" xmlns="http://www.w3.org/2000/svg"
 width="838.000000pt" height="838.000000pt" viewBox="0 0 838.000000 838.000000"
 preserveAspectRatio="xMidYMid meet">
<metadata>
Created by potrace 1.14, written by Peter Selinger 2001-2017
</metadata>
<g transform="translate(0.000000,838.000000) scale(0.100000,-0.100000)"
fill="#000000" stroke="none">
<path d="M2474 5392 l-161 -2 3 -63 c1 -34 5 -127 9 -207 3 -80 8 -181 10
-225 9 -193 18 -405 19 -464 l1 -65 35 -1 c110 -6 283 -16 335 -20 65 -5 201
-13 550 -30 323 -16 488 -19 915 -20 422 0 607 4 915 20 39 2 124 6 190 9 66
4 154 8 195 11 41 3 113 7 160 10 47 2 135 7 195 11 61 3 122 7 137 8 43 2 39
-24 53 321 4 88 8 194 10 235 2 41 6 148 10 237 4 89 8 173 9 187 6 54 119 51
-1721 51 -939 0 -1780 -1 -1869 -3z"/>
<path d="M1867 5383 c-1 -1 -139 -4 -307 -8 -720 -14 -1114 -33 -1274 -60 -50
-9 -148 -60 -185 -96 -19 -19 -48 -63 -65 -99 l-31 -65 1 -200 c1 -236 4 -304
16 -311 13 -8 45 -12 148 -19 52 -3 111 -7 130 -9 19 -2 80 -7 135 -11 55 -4
111 -8 125 -10 14 -2 68 -6 120 -9 52 -4 115 -9 140 -11 25 -3 83 -7 130 -10
47 -4 105 -8 130 -10 25 -2 88 -6 140 -10 52 -4 111 -8 130 -10 19 -2 80 -6
135 -10 55 -3 123 -8 150 -10 28 -2 93 -7 145 -10 52 -4 115 -8 140 -10 25 -2
92 -7 150 -10 58 -4 120 -8 138 -10 l33 -3 -6 177 c-3 97 -8 214 -10 261 -2
47 -7 150 -10 230 -4 80 -8 174 -10 210 -2 36 -3 81 -4 101 l-1 37 -166 -2
c-91 0 -166 -2 -167 -3z"/>
<path d="M6179 5371 c-3 -33 -6 -101 -13 -281 -4 -102 -9 -214 -11 -250 -4
-70 -17 -372 -19 -430 -1 -31 2 -35 24 -33 14 0 72 4 130 8 58 3 130 8 160 10
30 2 96 7 145 10 188 12 222 14 285 20 36 3 99 7 140 10 41 2 107 7 145 10 92
7 161 13 270 20 50 3 104 8 120 10 17 2 75 6 130 10 55 3 116 8 135 10 19 2
71 7 115 10 78 6 105 8 250 20 39 3 92 8 118 10 27 2 51 5 53 8 11 11 17 115
18 292 1 154 -2 201 -17 247 -41 134 -166 226 -327 242 -119 12 -324 24 -520
31 -85 3 -207 8 -270 10 -102 4 -315 9 -892 20 -150 3 -168 1 -169 -14z"/>
<path d="M30 4413 c0 -30 28 -179 46 -246 36 -132 125 -287 204 -353 14 -12
41 -36 60 -53 111 -97 360 -203 681 -290 72 -19 96 -25 157 -36 15 -3 34 -8
42 -11 12 -4 348 -76 420 -89 14 -3 39 -7 55 -10 17 -3 86 -17 155 -30 69 -14
141 -27 160 -30 19 -3 42 -8 50 -10 8 -2 31 -6 50 -9 19 -3 49 -8 65 -11 110
-20 140 -25 152 -25 11 0 13 15 8 78 -9 119 -13 154 -19 218 -4 32 -8 88 -11
124 -5 64 -12 141 -20 230 -4 43 -10 119 -21 245 -9 106 -16 150 -26 156 -6 4
-38 7 -72 9 -81 2 -219 11 -406 25 -61 5 -165 12 -285 20 -44 3 -105 8 -135
10 -77 7 -190 15 -269 20 -60 4 -129 9 -266 20 -27 3 -86 7 -130 10 -44 4
-100 8 -125 10 -25 2 -83 6 -130 10 -47 3 -101 8 -120 10 -19 2 -75 7 -125 10
-50 3 -102 8 -117 11 -23 4 -28 2 -28 -13z"/>
<path d="M8296 4423 c-1 -1 -42 -5 -91 -8 -50 -3 -106 -8 -125 -10 -19 -2 -80
-6 -135 -10 -55 -4 -116 -8 -135 -10 -19 -2 -69 -7 -110 -10 -72 -6 -97 -8
-260 -20 -41 -3 -100 -8 -130 -10 -110 -9 -197 -15 -280 -20 -47 -3 -110 -8
-140 -10 -30 -2 -91 -7 -135 -10 -44 -3 -107 -7 -140 -10 -95 -7 -375 -26
-442 -29 -38 -2 -47 -9 -49 -39 -3 -56 -15 -195 -19 -227 -4 -32 -8 -80 -20
-235 -3 -33 -7 -78 -9 -100 -2 -22 -7 -78 -11 -125 -3 -47 -8 -101 -10 -120
-3 -19 -7 -68 -10 -108 -2 -40 -7 -78 -10 -83 -12 -18 22 -20 106 -5 233 42
471 87 569 107 52 11 111 22 130 25 19 3 51 9 70 14 19 5 82 19 140 30 58 12
141 31 185 42 44 11 89 22 100 25 11 2 25 5 30 7 6 2 24 6 40 10 39 10 193 59
270 86 170 59 372 183 461 281 109 122 175 290 208 530 7 46 6 47 -19 45 -15
0 -28 -2 -29 -3z"/>
<path d="M2364 4252 c2 -4 7 -50 10 -102 8 -110 18 -218 31 -345 2 -22 7 -71
10 -110 3 -38 8 -99 11 -135 2 -36 7 -84 9 -107 2 -24 7 -78 11 -120 14 -170
12 -153 22 -151 4 1 27 -2 52 -6 25 -4 57 -9 73 -12 52 -8 92 -14 117 -19 40
-7 246 -39 320 -50 14 -2 43 -6 65 -9 146 -21 330 -45 385 -51 36 -3 76 -8 90
-11 14 -2 48 -6 75 -9 103 -8 191 -17 220 -22 56 -8 510 -11 595 -3 47 5 117
11 155 14 39 3 86 8 105 10 19 3 62 7 95 11 33 3 71 8 85 10 14 2 50 6 80 10
30 4 66 8 80 10 14 2 59 8 100 14 41 6 91 13 110 15 19 3 97 15 172 26 76 11
150 22 165 24 16 3 57 10 93 15 36 6 74 13 85 15 11 2 44 7 72 11 29 4 55 10
57 14 7 11 18 110 31 281 2 25 6 73 9 105 3 33 8 87 11 120 12 155 20 247 30
340 2 22 7 81 11 132 6 87 5 92 -13 89 -10 -2 -72 -7 -138 -11 -66 -3 -147 -8
-180 -10 -33 -3 -109 -7 -170 -10 -60 -3 -146 -8 -190 -10 -668 -35 -1154 -45
-1540 -31 -334 13 -394 15 -705 31 -47 2 -137 7 -200 10 -63 3 -137 7 -165 10
-27 2 -106 7 -175 10 -69 4 -135 8 -148 10 -12 2 -21 1 -18 -3z"/>
</g>
</svg>
