<svg width="37" height="39" viewBox="0 0 37 39" fill="none" xmlns="http://www.w3.org/2000/svg">
<path d="M9.39483 11.3434C9.90532 11.628 10.5211 11.8539 10.6028 11.8881C10.8643 11.9977 11.1775 11.9429 11.3863 11.7247C11.3863 11.7247 14.5066 8.46787 18.193 8.46787C21.879 8.46787 24.9994 11.7247 24.9994 11.7247C25.2047 11.9395 25.512 11.996 25.7709 11.8933C25.8573 11.859 26.2946 11.6712 26.6626 11.5077C27.3237 11.2138 28.2489 10.6036 28.2489 9.49185C28.2489 5.89657 26.2292 0 18.193 0C17.9663 0 17.7416 0.0132652 17.5187 0.0325211C9.9357 0.534029 8.13721 5.99756 8.13721 9.49143C8.13721 10.4273 8.79276 11.0075 9.39483 11.3434ZM15.2619 4.32615C17.1969 3.94317 19.1892 3.94317 21.1242 4.32615C21.8508 4.46864 22.2826 5.12077 22.1016 5.70658C21.9201 6.29453 21.295 6.62401 20.6929 6.50677C19.0429 6.18027 17.3432 6.18027 15.6928 6.50677C15.0907 6.62401 14.4655 6.29453 14.2841 5.70658C14.1035 5.1212 14.5353 4.46864 15.2619 4.32615Z" fill="#313E48"/>
<path d="M26.4319 21.1982C24.2457 23.1593 21.3582 24.3545 18.1955 24.3545C15.1758 24.3545 12.4119 23.2625 10.2634 21.4593C10.1602 21.3724 10.0546 21.2881 9.95442 21.1982C8.1555 22.1542 6.53159 23.4161 5.13917 24.9138L5.13875 24.9133C5.13575 24.9168 5.13276 24.9202 5.12933 24.9236C5.03006 25.0306 4.93506 25.1423 4.83836 25.2518C4.69287 25.4161 4.54952 25.5822 4.40959 25.7516C4.30818 25.8744 4.20762 25.9977 4.1092 26.1235C3.94403 26.334 3.78399 26.5488 3.62738 26.767C3.52682 26.9074 3.4284 27.0495 3.33126 27.1928C3.1862 27.4072 3.04457 27.6241 2.90763 27.8449C2.83018 27.9703 2.75444 28.0965 2.67956 28.2236C2.54605 28.4509 2.41768 28.6815 2.29316 28.9147C2.24309 29.0084 2.19003 29.1 2.14168 29.1946C1.98079 29.5086 1.83016 29.8291 1.68596 30.1535C1.63504 30.2682 1.58668 30.3841 1.5379 30.4997C1.42878 30.7581 1.32523 31.0196 1.22724 31.284C1.1913 31.3816 1.15278 31.4779 1.11812 31.5759C0.994458 31.9263 0.881062 32.2811 0.777081 32.6405C0.750123 32.7334 0.726588 32.8271 0.701341 32.9204C0.620039 33.2173 0.545582 33.5173 0.477973 33.8202C0.45615 33.9187 0.433043 34.0171 0.412503 34.1159C0.333768 34.4976 0.263591 34.8827 0.207107 35.2726C0.198977 35.329 0.193414 35.3868 0.185712 35.4437C0.138642 35.7878 0.101842 36.1348 0.0727442 36.4848C0.064186 36.5871 0.0560558 36.6894 0.0492093 36.7925C0.0218232 37.1973 0.00256745 37.6047 0 38.0159H18.9199H36.3859C36.3405 30.6726 32.3062 24.3203 26.4319 21.1982Z" fill="#313E48"/>
<path d="M18.193 22.1079C23.7464 22.1079 28.2489 17.6059 28.2489 12.0521C28.2489 11.9151 28.2437 11.7791 28.2386 11.6434C27.8864 11.9661 27.4786 12.2121 27.0845 12.3893C26.8659 12.4877 26.1975 12.774 26.0571 12.8223C25.8834 12.8822 25.699 12.9135 25.5103 12.9135C25.055 12.9135 24.6138 12.7247 24.2989 12.3957C24.2706 12.3666 21.4276 9.43799 18.193 9.43799C14.9765 9.43799 12.1146 12.3674 12.0872 12.3957C11.7723 12.7247 11.3307 12.9135 10.8758 12.9135C10.6893 12.9135 10.5074 12.8831 10.3354 12.8245C10.1929 12.7761 9.49154 12.4774 9.25747 12.3692C8.87749 12.1933 8.48638 11.9537 8.14748 11.643C8.14191 11.7786 8.13721 11.9151 8.13721 12.0521C8.13721 17.6059 12.6397 22.1079 18.193 22.1079Z" fill="#8CA1B2"/>
</svg>
