<svg width="36" height="38" viewBox="0 0 36 38" fill="none" xmlns="http://www.w3.org/2000/svg">
<path d="M21.5394 0C25.7873 0 29.1278 0.946137 31.5607 2.83841C34.0322 4.69207 35.268 7.24085 35.268 10.4848V11.1799C35.268 14.4238 34.0322 16.9726 31.5607 18.8262C29.1278 20.6413 25.7873 21.5488 21.5394 21.5488H12.628V26.936H25.9997V32.0335H12.628V38H6.83537V32.0335H0V26.936H6.83537V21.5488H0V16.4512H6.83537V0H21.5394ZM29.5333 10.5427C29.5333 6.9126 26.8686 5.09756 21.5394 5.09756H12.628V16.4512H21.5394C24.2426 16.4512 26.2507 16.0457 27.5637 15.2348C28.8768 14.3852 29.5333 13.0722 29.5333 11.2957V10.5427Z" fill="#313E48"/>
</svg>
