<svg width="36" height="36" viewBox="0 0 36 36" fill="none" xmlns="http://www.w3.org/2000/svg">
<path d="M18 36C27.9411 36 36 27.9411 36 18C36 8.05888 27.9411 0 18 0C8.05888 0 0 8.05888 0 18C0 27.9411 8.05888 36 18 36Z" fill="#FF3D00"/>
<path d="M20.1657 9.74783H18.4277C15.4504 9.74783 13.9611 11.2452 13.9611 13.4892C13.9611 15.9832 14.9541 17.2311 17.1865 18.7284L18.9245 19.9763L13.9611 27.7086H9.99072L14.706 20.723C11.9749 18.7284 10.4873 16.9811 10.4873 13.7392C10.4873 9.74783 13.2162 7.00259 18.4277 7.00259H23.6393V27.7086H20.1657V9.74783Z" fill="white"/>
</svg>
