<svg width="200" height="354" viewBox="0 0 200 354" fill="none" xmlns="http://www.w3.org/2000/svg">
<path d="M2.00097 99.861C2.00117 45.8143 45.8772 2 100 2C154.124 2 198 45.8143 198 99.861V337.343C198 348.981 185.055 355.961 175.31 349.578L108.485 305.803C103.334 302.428 96.6669 302.428 91.514 305.803L24.6892 349.578C14.9453 355.961 1.99981 348.981 2 337.343L2.00097 99.861Z" fill="white"/>
<path d="M107.937 306.639L108.474 305.82L107.937 306.64L174.762 350.414C185.17 357.232 199 349.779 199 337.343V99.861C199 45.2607 154.675 1 100 1C45.3263 1 1.00117 45.2607 1.00097 99.861L1 337.343C0.999792 349.779 14.8303 357.232 25.2371 350.414L92.0619 306.64C96.8822 303.482 103.119 303.482 107.937 306.639Z" stroke="#313E48" stroke-opacity="0.04" stroke-width="2"/>
<path d="M128.428 282.273V281.353L130.19 279.87C130.333 279.751 130.491 279.62 130.664 279.477C130.837 279.334 131.001 279.179 131.156 279.012C131.317 278.84 131.451 278.661 131.559 278.476C131.666 278.292 131.72 278.098 131.72 277.896C131.72 277.592 131.627 277.354 131.442 277.181C131.264 277.008 131.007 276.922 130.673 276.922C130.381 276.922 130.142 276.985 129.957 277.11C129.773 277.235 129.656 277.404 129.609 277.619H128.508C128.55 277.22 128.678 276.895 128.893 276.645C129.114 276.389 129.385 276.199 129.707 276.073C130.029 275.942 130.366 275.877 130.718 275.877C131.117 275.877 131.475 275.951 131.791 276.1C132.107 276.243 132.358 276.458 132.543 276.743C132.734 277.023 132.829 277.366 132.829 277.771C132.829 278.134 132.757 278.462 132.614 278.753C132.477 279.045 132.289 279.313 132.051 279.557C131.818 279.796 131.562 280.031 131.281 280.263L130.074 281.255H132.847V282.273H128.428Z" fill="#323555"/>
<path d="M123.453 282.273V281.353L125.215 279.87C125.358 279.751 125.516 279.62 125.689 279.477C125.862 279.334 126.026 279.179 126.181 279.012C126.342 278.84 126.476 278.661 126.584 278.476C126.691 278.292 126.745 278.098 126.745 277.896C126.745 277.592 126.652 277.354 126.467 277.181C126.288 277.008 126.032 276.922 125.698 276.922C125.406 276.922 125.167 276.985 124.982 277.11C124.797 277.235 124.681 277.404 124.633 277.619H123.533C123.575 277.22 123.703 276.895 123.918 276.645C124.138 276.389 124.41 276.199 124.732 276.073C125.054 275.942 125.391 275.877 125.743 275.877C126.142 275.877 126.5 275.951 126.816 276.1C127.132 276.243 127.383 276.458 127.568 276.743C127.759 277.023 127.854 277.366 127.854 277.771C127.854 278.134 127.782 278.462 127.639 278.753C127.502 279.045 127.314 279.313 127.076 279.557C126.843 279.796 126.587 280.031 126.306 280.263L125.099 281.255H127.872V282.273H123.453Z" fill="#323555"/>
<path d="M120.586 282.344C120.127 282.344 119.736 282.264 119.414 282.103C119.092 281.937 118.833 281.704 118.636 281.406C118.439 281.109 118.293 280.766 118.198 280.379C118.108 279.992 118.063 279.575 118.063 279.129C118.063 278.676 118.108 278.253 118.198 277.86C118.293 277.467 118.439 277.125 118.636 276.833C118.839 276.535 119.101 276.303 119.423 276.136C119.745 275.963 120.136 275.877 120.595 275.877C121.066 275.877 121.463 275.966 121.785 276.145C122.113 276.324 122.372 276.565 122.563 276.869C122.76 277.172 122.9 277.518 122.984 277.905C123.073 278.292 123.118 278.697 123.118 279.12C123.118 279.537 123.073 279.938 122.984 280.326C122.9 280.713 122.76 281.058 122.563 281.362C122.366 281.666 122.104 281.907 121.776 282.085C121.454 282.258 121.057 282.344 120.586 282.344ZM120.586 281.326C120.89 281.326 121.135 281.255 121.32 281.112C121.511 280.969 121.654 280.787 121.749 280.567C121.845 280.34 121.907 280.099 121.937 279.843C121.973 279.587 121.991 279.346 121.991 279.12C121.991 278.893 121.976 278.655 121.946 278.405C121.916 278.149 121.853 277.908 121.758 277.681C121.663 277.455 121.522 277.271 121.338 277.128C121.153 276.985 120.905 276.913 120.595 276.913C120.285 276.913 120.035 276.985 119.844 277.128C119.659 277.271 119.519 277.455 119.423 277.681C119.328 277.902 119.262 278.14 119.226 278.396C119.197 278.652 119.182 278.893 119.182 279.12C119.182 279.346 119.197 279.587 119.226 279.843C119.256 280.093 119.316 280.332 119.405 280.558C119.501 280.784 119.641 280.969 119.826 281.112C120.017 281.255 120.27 281.326 120.586 281.326Z" fill="#323555"/>
<path d="M112.995 282.273V281.353L114.757 279.87C114.901 279.751 115.059 279.62 115.232 279.477C115.404 279.334 115.569 279.179 115.724 279.012C115.885 278.84 116.019 278.661 116.126 278.476C116.233 278.292 116.287 278.098 116.287 277.896C116.287 277.592 116.195 277.354 116.01 277.181C115.831 277.008 115.574 276.922 115.24 276.922C114.948 276.922 114.71 276.985 114.525 277.11C114.34 277.235 114.224 277.404 114.176 277.619H113.076C113.117 277.22 113.246 276.895 113.46 276.645C113.681 276.389 113.952 276.199 114.274 276.073C114.596 275.942 114.933 275.877 115.285 275.877C115.685 275.877 116.043 275.951 116.359 276.1C116.675 276.243 116.925 276.458 117.11 276.743C117.301 277.023 117.396 277.366 117.396 277.771C117.396 278.134 117.325 278.462 117.182 278.753C117.045 279.045 116.857 279.313 116.618 279.557C116.386 279.796 116.129 280.031 115.849 280.263L114.641 281.255H117.414V282.273H112.995Z" fill="#323555"/>
<path d="M104.111 280.2V279.218H110.06V280.2H104.111Z" fill="#323555"/>
<path d="M98.3425 282.335C98.1337 282.335 97.931 282.306 97.7342 282.246C97.5433 282.187 97.3704 282.1 97.2153 281.987C97.0603 281.868 96.938 281.722 96.8485 281.549C96.7591 281.371 96.7144 281.162 96.7144 280.924C96.7144 280.62 96.774 280.373 96.8933 280.183C97.0125 279.986 97.1736 279.837 97.3763 279.736C97.5851 279.635 97.8206 279.566 98.0831 279.531C98.3455 279.489 98.6198 279.468 98.9061 279.468H99.8275C99.8275 279.26 99.7947 279.081 99.7291 278.932C99.6635 278.777 99.5591 278.655 99.416 278.566C99.2788 278.476 99.0999 278.432 98.8792 278.432C98.7361 278.432 98.6019 278.45 98.4767 278.485C98.3574 278.515 98.253 278.566 98.1636 278.637C98.0801 278.703 98.0204 278.789 97.9846 278.896H96.8664C96.9082 278.652 96.9917 278.444 97.1169 278.271C97.2481 278.092 97.4062 277.946 97.591 277.833C97.7819 277.72 97.9906 277.637 98.2172 277.583C98.4439 277.524 98.6735 277.494 98.9061 277.494C99.3653 277.494 99.738 277.583 100.024 277.762C100.316 277.94 100.531 278.197 100.668 278.53C100.806 278.864 100.874 279.265 100.874 279.736V282.273H99.908L99.8811 281.701C99.7499 281.868 99.5979 281.999 99.4249 282.094C99.2579 282.184 99.082 282.246 98.8971 282.282C98.7122 282.318 98.5274 282.335 98.3425 282.335ZM98.593 281.451C98.8375 281.451 99.0522 281.406 99.237 281.317C99.4219 281.228 99.568 281.103 99.6754 280.942C99.7827 280.781 99.8364 280.594 99.8364 280.379V280.236H98.9866C98.8315 280.236 98.6824 280.242 98.5393 280.254C98.3961 280.26 98.2679 280.284 98.1546 280.326C98.0473 280.361 97.9608 280.418 97.8952 280.495C97.8296 280.573 97.7968 280.683 97.7968 280.826C97.7968 280.963 97.8326 281.079 97.9041 281.174C97.9757 281.264 98.0711 281.332 98.1904 281.38C98.3156 281.427 98.4498 281.451 98.593 281.451Z" fill="#323555"/>
<path d="M94.1327 282.335C93.6437 282.335 93.2322 282.237 92.8982 282.041C92.5643 281.838 92.3108 281.555 92.1378 281.192C91.9649 280.829 91.8784 280.409 91.8784 279.932C91.8784 279.456 91.9679 279.036 92.1468 278.673C92.3257 278.304 92.5881 278.015 92.934 277.806C93.2799 277.598 93.7004 277.494 94.1954 277.494C94.5591 277.494 94.8812 277.556 95.1615 277.681C95.4478 277.806 95.6774 277.991 95.8503 278.235C96.0292 278.473 96.1425 278.771 96.1903 279.129H95.1168C95.0452 278.902 94.9259 278.738 94.7589 278.637C94.5979 278.53 94.4011 278.476 94.1685 278.476C93.8703 278.476 93.6318 278.551 93.4529 278.7C93.2799 278.843 93.1547 279.024 93.0771 279.245C92.9996 279.465 92.9608 279.694 92.9608 279.932C92.9608 280.183 93.0026 280.418 93.0861 280.638C93.1696 280.853 93.2978 281.025 93.4708 281.156C93.6497 281.287 93.8793 281.353 94.1596 281.353C94.3862 281.353 94.589 281.302 94.7679 281.201C94.9528 281.1 95.072 280.936 95.1257 280.71H96.235C96.1932 281.073 96.071 281.377 95.8682 281.621C95.6714 281.859 95.4209 282.038 95.1168 282.157C94.8126 282.276 94.4846 282.335 94.1327 282.335Z" fill="#323555"/>
<path d="M87.3789 282.273V277.565H88.4703V279.45H89.2217L90.4473 277.565H91.6818L90.17 279.79L91.7355 282.273H90.4741L89.3022 280.415H88.4703V282.273H87.3789Z" fill="#323555"/>
<path d="M84.5323 282.335C84.0433 282.335 83.6258 282.234 83.2799 282.032C82.94 281.829 82.6805 281.549 82.5016 281.192C82.3287 280.829 82.2422 280.409 82.2422 279.932C82.2422 279.456 82.3316 279.036 82.5106 278.673C82.6954 278.304 82.9578 278.015 83.2978 277.806C83.6437 277.598 84.0582 277.494 84.5412 277.494C84.8871 277.494 85.1943 277.556 85.4626 277.681C85.731 277.8 85.9576 277.97 86.1425 278.191C86.3274 278.405 86.4646 278.655 86.554 278.941C86.6435 279.221 86.6852 279.522 86.6793 279.843C86.6793 279.915 86.6763 279.986 86.6703 280.058C86.6644 280.123 86.6554 280.195 86.6435 280.272H83.3336C83.3515 280.48 83.4051 280.671 83.4946 280.844C83.59 281.016 83.7212 281.153 83.8882 281.255C84.0611 281.356 84.2758 281.406 84.5323 281.406C84.6814 281.406 84.8245 281.389 84.9617 281.353C85.0989 281.311 85.2181 281.252 85.3195 281.174C85.4269 281.097 85.4984 280.998 85.5342 280.879H86.6256C86.5481 281.219 86.4049 281.496 86.1962 281.71C85.9875 281.925 85.737 282.082 85.4448 282.184C85.1585 282.285 84.8543 282.335 84.5323 282.335ZM83.3515 279.459H85.6237C85.6237 279.263 85.5789 279.084 85.4895 278.923C85.4 278.762 85.2718 278.637 85.1048 278.548C84.9438 278.453 84.747 278.405 84.5144 278.405C84.2639 278.405 84.0552 278.456 83.8882 278.557C83.7212 278.658 83.593 278.789 83.5035 278.95C83.4141 279.111 83.3634 279.28 83.3515 279.459Z" fill="#323555"/>
<path d="M76.7295 283.64V281.308C76.8846 281.308 77.0128 281.269 77.1142 281.192C77.2155 281.109 77.2961 280.998 77.3557 280.861C77.4213 280.724 77.472 280.576 77.5078 280.415C77.5436 280.248 77.5704 280.081 77.5883 279.915C77.6241 279.647 77.6449 279.373 77.6509 279.093C77.6628 278.807 77.6688 278.563 77.6688 278.36C77.6748 278.229 77.6777 278.098 77.6777 277.967C77.6777 277.83 77.6777 277.696 77.6777 277.565H81.3186V281.308H81.927V283.64H80.8535V282.273H77.803V283.64H76.7295ZM78.286 281.308H80.2273V278.53H78.6618C78.6558 278.75 78.6498 278.989 78.6439 279.245C78.6379 279.495 78.626 279.733 78.6081 279.959C78.6021 280.09 78.5872 280.236 78.5634 280.397C78.5455 280.558 78.5157 280.716 78.4739 280.87C78.4322 281.025 78.3695 281.171 78.286 281.308Z" fill="#323555"/>
<path d="M72.0859 282.273V277.565H73.1773V279.459H75.1454V277.565H76.2368V282.273H75.1454V280.433H73.1773V282.273H72.0859Z" fill="#323555"/>
<path d="M66.0254 282.273L67.5372 279.861C67.1078 279.736 66.7679 279.519 66.5174 279.209C66.2669 278.899 66.1417 278.491 66.1417 277.985C66.1417 277.604 66.2013 277.285 66.3206 277.029C66.4458 276.767 66.6188 276.559 66.8395 276.404C67.0601 276.243 67.3195 276.13 67.6177 276.064C67.9219 275.993 68.2469 275.957 68.5928 275.957H71.026V282.273H69.9078V280.049H68.6375L67.3225 282.273H66.0254ZM68.6823 279.057H69.9078V276.976H68.5212C68.2529 276.976 68.0233 277.011 67.8324 277.083C67.6416 277.154 67.4955 277.264 67.3941 277.413C67.2987 277.562 67.251 277.756 67.251 277.994C67.251 278.28 67.3195 278.5 67.4567 278.655C67.5939 278.804 67.7698 278.908 67.9845 278.968C68.2052 279.027 68.4378 279.057 68.6823 279.057Z" fill="#323555"/>
<path d="M141.356 269.99V265.282H142.447V268.346C142.483 268.281 142.528 268.209 142.582 268.132C142.641 268.055 142.692 267.992 142.734 267.944L144.755 265.282H145.721V269.99H144.639V266.962C144.591 267.039 144.541 267.114 144.487 267.185C144.439 267.251 144.392 267.313 144.344 267.373L142.349 269.99H141.356ZM143.61 264.8C143.103 264.8 142.704 264.684 142.412 264.452C142.125 264.213 141.979 263.862 141.973 263.397H142.904C142.91 263.618 142.975 263.776 143.1 263.871C143.232 263.966 143.405 264.014 143.619 264.014C143.834 264.014 144.004 263.966 144.129 263.871C144.26 263.776 144.329 263.618 144.335 263.397H145.265C145.259 263.701 145.188 263.96 145.051 264.175C144.919 264.383 144.731 264.541 144.487 264.648C144.242 264.749 143.95 264.8 143.61 264.8Z" fill="#323555"/>
<path d="M138.509 270.053C138.02 270.053 137.603 269.951 137.257 269.749C136.917 269.546 136.658 269.266 136.479 268.909C136.306 268.546 136.219 268.126 136.219 267.65C136.219 267.173 136.309 266.753 136.488 266.39C136.672 266.021 136.935 265.732 137.275 265.523C137.621 265.315 138.035 265.211 138.518 265.211C138.864 265.211 139.171 265.273 139.44 265.398C139.708 265.518 139.935 265.687 140.12 265.908C140.304 266.122 140.442 266.372 140.531 266.658C140.621 266.938 140.662 267.239 140.656 267.56C140.656 267.632 140.653 267.703 140.647 267.775C140.641 267.84 140.632 267.912 140.621 267.989H137.311C137.329 268.197 137.382 268.388 137.472 268.561C137.567 268.733 137.698 268.87 137.865 268.972C138.038 269.073 138.253 269.123 138.509 269.123C138.658 269.123 138.802 269.106 138.939 269.07C139.076 269.028 139.195 268.969 139.297 268.891C139.404 268.814 139.475 268.716 139.511 268.596H140.603C140.525 268.936 140.382 269.213 140.173 269.427C139.965 269.642 139.714 269.799 139.422 269.901C139.136 270.002 138.831 270.053 138.509 270.053ZM137.329 267.176H139.601C139.601 266.98 139.556 266.801 139.467 266.64C139.377 266.479 139.249 266.354 139.082 266.265C138.921 266.17 138.724 266.122 138.491 266.122C138.241 266.122 138.032 266.173 137.865 266.274C137.698 266.375 137.57 266.506 137.481 266.667C137.391 266.828 137.34 266.997 137.329 267.176Z" fill="#323555"/>
<path d="M131.074 269.999V269.016C131.205 269.016 131.318 268.987 131.414 268.927C131.509 268.862 131.59 268.775 131.655 268.668C131.733 268.537 131.789 268.37 131.825 268.168C131.861 267.965 131.885 267.76 131.897 267.551C131.915 267.283 131.927 267.015 131.933 266.747C131.944 266.473 131.953 266.211 131.959 265.961C131.971 265.705 131.977 265.479 131.977 265.282H135.52V269.99H134.428V266.247H132.988C132.982 266.444 132.973 266.652 132.961 266.872C132.955 267.093 132.946 267.316 132.934 267.542C132.923 267.763 132.902 267.977 132.872 268.186C132.848 268.418 132.806 268.653 132.747 268.891C132.693 269.129 132.597 269.344 132.46 269.534C132.317 269.713 132.138 269.835 131.924 269.901C131.715 269.966 131.432 269.999 131.074 269.999Z" fill="#323555"/>
<path d="M128.673 270.053C128.184 270.053 127.766 269.951 127.421 269.749C127.081 269.546 126.821 269.266 126.642 268.909C126.469 268.546 126.383 268.126 126.383 267.65C126.383 267.173 126.472 266.753 126.651 266.39C126.836 266.021 127.098 265.732 127.438 265.523C127.784 265.315 128.199 265.211 128.682 265.211C129.028 265.211 129.335 265.273 129.603 265.398C129.872 265.518 130.098 265.687 130.283 265.908C130.468 266.122 130.605 266.372 130.695 266.658C130.784 266.938 130.826 267.239 130.82 267.56C130.82 267.632 130.817 267.703 130.811 267.775C130.805 267.84 130.796 267.912 130.784 267.989H127.474C127.492 268.197 127.546 268.388 127.635 268.561C127.731 268.733 127.862 268.87 128.029 268.972C128.202 269.073 128.416 269.123 128.673 269.123C128.822 269.123 128.965 269.106 129.102 269.07C129.239 269.028 129.359 268.969 129.46 268.891C129.567 268.814 129.639 268.716 129.675 268.596H130.766C130.689 268.936 130.546 269.213 130.337 269.427C130.128 269.642 129.878 269.799 129.585 269.901C129.299 270.002 128.995 270.053 128.673 270.053ZM127.492 267.176H129.764C129.764 266.98 129.72 266.801 129.63 266.64C129.541 266.479 129.412 266.354 129.245 266.265C129.084 266.17 128.888 266.122 128.655 266.122C128.405 266.122 128.196 266.173 128.029 266.274C127.862 266.375 127.734 266.506 127.644 266.667C127.555 266.828 127.504 266.997 127.492 267.176Z" fill="#323555"/>
<path d="M123.474 269.99V266.247H121.917V265.282H126.13V266.247H124.565V269.99H123.474Z" fill="#323555"/>
<path d="M118.969 270.053C118.76 270.053 118.557 270.023 118.361 269.963C118.17 269.904 117.997 269.817 117.842 269.704C117.687 269.585 117.564 269.439 117.475 269.266C117.386 269.088 117.341 268.879 117.341 268.641C117.341 268.337 117.4 268.09 117.52 267.9C117.639 267.703 117.8 267.554 118.003 267.453C118.212 267.352 118.447 267.283 118.71 267.248C118.972 267.206 119.246 267.185 119.533 267.185H120.454C120.454 266.977 120.421 266.798 120.356 266.649C120.29 266.494 120.186 266.372 120.042 266.283C119.905 266.193 119.726 266.149 119.506 266.149C119.363 266.149 119.228 266.167 119.103 266.202C118.984 266.232 118.879 266.283 118.79 266.354C118.707 266.42 118.647 266.506 118.611 266.613H117.493C117.535 266.369 117.618 266.161 117.743 265.988C117.875 265.809 118.033 265.663 118.217 265.55C118.408 265.437 118.617 265.354 118.844 265.3C119.07 265.241 119.3 265.211 119.533 265.211C119.992 265.211 120.364 265.3 120.651 265.479C120.943 265.657 121.158 265.914 121.295 266.247C121.432 266.581 121.501 266.983 121.501 267.453V269.99H120.534L120.508 269.418C120.376 269.585 120.224 269.716 120.051 269.811C119.884 269.901 119.708 269.963 119.524 269.999C119.339 270.035 119.154 270.053 118.969 270.053ZM119.219 269.168C119.464 269.168 119.679 269.123 119.864 269.034C120.048 268.945 120.194 268.82 120.302 268.659C120.409 268.498 120.463 268.311 120.463 268.096V267.953H119.613C119.458 267.953 119.309 267.959 119.166 267.971C119.023 267.977 118.894 268.001 118.781 268.043C118.674 268.078 118.587 268.135 118.522 268.212C118.456 268.29 118.423 268.4 118.423 268.543C118.423 268.68 118.459 268.796 118.531 268.891C118.602 268.981 118.698 269.049 118.817 269.097C118.942 269.144 119.076 269.168 119.219 269.168Z" fill="#323555"/>
<path d="M112.684 269.99V265.282H114.822C115.025 265.282 115.228 265.297 115.43 265.327C115.639 265.351 115.827 265.407 115.994 265.497C116.161 265.58 116.295 265.702 116.397 265.863C116.504 266.018 116.558 266.229 116.558 266.497C116.558 266.64 116.534 266.774 116.486 266.899C116.444 267.024 116.382 267.131 116.298 267.221C116.221 267.31 116.122 267.388 116.003 267.453C116.277 267.53 116.474 267.667 116.593 267.864C116.719 268.055 116.781 268.287 116.781 268.561C116.781 268.817 116.731 269.037 116.629 269.222C116.528 269.4 116.391 269.546 116.218 269.66C116.051 269.773 115.863 269.856 115.654 269.91C115.451 269.963 115.246 269.99 115.037 269.99H112.684ZM113.784 269.043H114.903C115.052 269.043 115.186 269.028 115.305 268.998C115.424 268.969 115.52 268.915 115.591 268.838C115.669 268.76 115.708 268.653 115.708 268.516C115.708 268.391 115.678 268.293 115.618 268.221C115.565 268.144 115.49 268.09 115.395 268.061C115.305 268.025 115.204 268.004 115.09 267.998C114.977 267.986 114.867 267.98 114.759 267.98H113.784V269.043ZM113.784 267.212H114.527C114.628 267.212 114.736 267.206 114.849 267.194C114.962 267.182 115.07 267.158 115.171 267.123C115.272 267.081 115.356 267.024 115.421 266.953C115.487 266.881 115.52 266.789 115.52 266.676C115.52 266.521 115.475 266.411 115.386 266.345C115.302 266.28 115.198 266.238 115.073 266.22C114.953 266.202 114.834 266.194 114.715 266.194H113.784V267.212Z" fill="#323555"/>
<path d="M109.681 270.053C109.198 270.053 108.78 269.954 108.429 269.758C108.083 269.561 107.814 269.281 107.624 268.918C107.439 268.555 107.346 268.129 107.346 267.641C107.346 267.146 107.439 266.72 107.624 266.363C107.814 266 108.083 265.717 108.429 265.515C108.78 265.312 109.198 265.211 109.681 265.211C110.158 265.211 110.57 265.312 110.916 265.515C111.261 265.717 111.527 266.003 111.712 266.372C111.897 266.735 111.989 267.164 111.989 267.658C111.989 268.141 111.897 268.564 111.712 268.927C111.533 269.284 111.27 269.561 110.924 269.758C110.579 269.954 110.164 270.053 109.681 270.053ZM109.672 269.061C109.97 269.061 110.209 268.995 110.388 268.864C110.573 268.733 110.707 268.561 110.79 268.346C110.874 268.132 110.916 267.9 110.916 267.65C110.916 267.399 110.874 267.164 110.79 266.944C110.707 266.723 110.573 266.548 110.388 266.417C110.209 266.28 109.97 266.211 109.672 266.211C109.374 266.211 109.132 266.28 108.947 266.417C108.763 266.548 108.628 266.723 108.545 266.944C108.461 267.164 108.42 267.399 108.42 267.65C108.42 267.906 108.461 268.141 108.545 268.355C108.628 268.57 108.763 268.742 108.947 268.873C109.132 268.998 109.374 269.061 109.672 269.061Z" fill="#323555"/>
<path d="M104.865 270.053C104.62 270.053 104.376 270.029 104.131 269.981C103.892 269.927 103.669 269.844 103.46 269.731C103.257 269.612 103.09 269.457 102.959 269.266C102.828 269.076 102.75 268.841 102.727 268.561H103.791C103.809 268.692 103.875 268.799 103.988 268.882C104.107 268.966 104.244 269.028 104.399 269.07C104.56 269.106 104.71 269.123 104.847 269.123C104.996 269.123 105.142 269.109 105.285 269.079C105.428 269.043 105.547 268.984 105.643 268.9C105.744 268.811 105.795 268.689 105.795 268.534C105.795 268.391 105.759 268.284 105.688 268.212C105.622 268.141 105.53 268.093 105.41 268.069C105.297 268.04 105.166 268.025 105.017 268.025H104.194V267.194H104.847C104.96 267.194 105.064 267.185 105.16 267.167C105.255 267.149 105.339 267.12 105.41 267.078C105.488 267.036 105.547 266.983 105.589 266.917C105.631 266.846 105.652 266.762 105.652 266.667C105.652 266.53 105.613 266.426 105.536 266.354C105.458 266.277 105.357 266.223 105.231 266.193C105.106 266.158 104.978 266.14 104.847 266.14C104.704 266.14 104.56 266.155 104.417 266.185C104.28 266.214 104.161 266.268 104.059 266.345C103.964 266.423 103.904 266.53 103.881 266.667H102.834C102.87 266.298 102.989 266.009 103.192 265.8C103.395 265.586 103.645 265.434 103.943 265.345C104.241 265.255 104.543 265.211 104.847 265.211C105.061 265.211 105.276 265.232 105.491 265.273C105.711 265.315 105.911 265.386 106.09 265.488C106.269 265.589 106.412 265.723 106.52 265.89C106.627 266.056 106.681 266.265 106.681 266.515C106.681 266.712 106.639 266.893 106.555 267.06C106.472 267.221 106.341 267.349 106.162 267.444C106.412 267.539 106.591 267.685 106.698 267.882C106.806 268.078 106.859 268.305 106.859 268.561C106.859 268.829 106.8 269.058 106.681 269.249C106.567 269.439 106.412 269.594 106.215 269.713C106.025 269.832 105.81 269.919 105.571 269.972C105.339 270.026 105.103 270.053 104.865 270.053Z" fill="#323555"/>
<path d="M98.3608 269.99V265.282H99.4612V266.89H100.445C100.72 266.89 100.97 266.914 101.197 266.962C101.429 267.009 101.629 267.09 101.796 267.203C101.963 267.316 102.091 267.471 102.181 267.667C102.27 267.858 102.315 268.099 102.315 268.391C102.315 268.671 102.264 268.915 102.163 269.124C102.061 269.326 101.921 269.493 101.742 269.624C101.563 269.749 101.355 269.841 101.116 269.901C100.878 269.96 100.624 269.99 100.356 269.99H98.3608ZM99.4612 269.043H100.025C100.186 269.043 100.338 269.037 100.481 269.025C100.624 269.007 100.752 268.981 100.866 268.945C100.985 268.903 101.074 268.841 101.134 268.757C101.2 268.668 101.232 268.555 101.232 268.418C101.232 268.281 101.206 268.174 101.152 268.096C101.098 268.013 101.027 267.95 100.937 267.909C100.854 267.867 100.755 267.84 100.642 267.828C100.535 267.816 100.424 267.81 100.311 267.81H99.4612V269.043Z" fill="#323555"/>
<path d="M93.0352 269.999V269.016C93.1664 269.016 93.2797 268.987 93.3751 268.927C93.4705 268.862 93.551 268.775 93.6166 268.668C93.6942 268.537 93.7508 268.37 93.7866 268.168C93.8224 267.965 93.8462 267.76 93.8582 267.551C93.8761 267.283 93.888 267.015 93.8939 266.747C93.9059 266.473 93.9148 266.211 93.9208 265.961C93.9327 265.705 93.9387 265.479 93.9387 265.282H97.4812V269.99H96.3898V266.247H94.9495C94.9436 266.444 94.9346 266.652 94.9227 266.872C94.9167 267.093 94.9078 267.316 94.8959 267.542C94.8839 267.763 94.8631 267.977 94.8332 268.186C94.8094 268.418 94.7676 268.653 94.708 268.891C94.6543 269.129 94.5589 269.344 94.4217 269.534C94.2786 269.713 94.0997 269.835 93.885 269.901C93.6763 269.966 93.393 269.999 93.0352 269.999Z" fill="#323555"/>
<path d="M90.4789 270.053C89.9958 270.053 89.5783 269.954 89.2265 269.758C88.8806 269.561 88.6122 269.281 88.4214 268.918C88.2365 268.555 88.144 268.129 88.144 267.641C88.144 267.146 88.2365 266.72 88.4214 266.363C88.6122 266 88.8806 265.717 89.2265 265.515C89.5783 265.312 89.9958 265.211 90.4789 265.211C90.956 265.211 91.3675 265.312 91.7134 265.515C92.0593 265.717 92.3247 266.003 92.5095 266.372C92.6944 266.735 92.7869 267.164 92.7869 267.658C92.7869 268.141 92.6944 268.564 92.5095 268.927C92.3306 269.284 92.0682 269.561 91.7223 269.758C91.3764 269.954 90.9619 270.053 90.4789 270.053ZM90.4699 269.061C90.7681 269.061 91.0067 268.995 91.1856 268.864C91.3705 268.733 91.5046 268.561 91.5881 268.346C91.6716 268.132 91.7134 267.9 91.7134 267.65C91.7134 267.399 91.6716 267.164 91.5881 266.944C91.5046 266.723 91.3705 266.548 91.1856 266.417C91.0067 266.28 90.7681 266.211 90.4699 266.211C90.1717 266.211 89.9302 266.28 89.7453 266.417C89.5604 266.548 89.4263 266.723 89.3428 266.944C89.2593 267.164 89.2175 267.399 89.2175 267.65C89.2175 267.906 89.2593 268.141 89.3428 268.355C89.4263 268.57 89.5604 268.742 89.7453 268.873C89.9302 268.998 90.1717 269.061 90.4699 269.061Z" fill="#323555"/>
<path d="M83.2861 269.99V265.282H87.4459V269.99H86.3545V266.247H84.3775V269.99H83.2861Z" fill="#323555"/>
<path d="M75.668 271.723V265.282H76.6878L76.7415 265.925C76.9263 265.675 77.153 265.494 77.4213 265.381C77.6897 265.267 77.973 265.211 78.2712 265.211C78.7244 265.211 79.1031 265.318 79.4073 265.532C79.7114 265.747 79.9381 266.039 80.0872 266.408C80.2362 266.771 80.3108 267.182 80.3108 267.641C80.3108 268.099 80.2333 268.51 80.0782 268.873C79.9291 269.237 79.6965 269.525 79.3804 269.74C79.0703 269.948 78.6707 270.053 78.1817 270.053C77.9551 270.053 77.7523 270.029 77.5734 269.981C77.3945 269.927 77.2364 269.859 77.0993 269.776C76.9681 269.686 76.8548 269.591 76.7593 269.49V271.723H75.668ZM78.0296 269.07C78.3338 269.07 78.5723 269.004 78.7453 268.873C78.9182 268.736 79.0435 268.561 79.121 268.346C79.1985 268.126 79.2373 267.894 79.2373 267.65C79.2373 267.393 79.1956 267.155 79.1121 266.935C79.0345 266.715 78.9063 266.536 78.7274 266.399C78.5485 266.262 78.3099 266.193 78.0117 266.193C77.7374 266.193 77.5048 266.262 77.314 266.399C77.1291 266.53 76.989 266.706 76.8935 266.926C76.7981 267.146 76.7504 267.385 76.7504 267.641C76.7504 267.903 76.7951 268.144 76.8846 268.364C76.974 268.579 77.1142 268.751 77.305 268.882C77.4959 269.007 77.7374 269.07 78.0296 269.07Z" fill="#323555"/>
<path d="M72.6649 270.053C72.1818 270.053 71.7644 269.954 71.4125 269.758C71.0666 269.561 70.7982 269.281 70.6074 268.918C70.4225 268.555 70.3301 268.129 70.3301 267.641C70.3301 267.146 70.4225 266.72 70.6074 266.363C70.7982 266 71.0666 265.717 71.4125 265.515C71.7644 265.312 72.1818 265.211 72.6649 265.211C73.142 265.211 73.5535 265.312 73.8994 265.515C74.2453 265.717 74.5107 266.003 74.6956 266.372C74.8805 266.735 74.9729 267.164 74.9729 267.658C74.9729 268.141 74.8805 268.564 74.6956 268.927C74.5167 269.284 74.2543 269.561 73.9084 269.758C73.5625 269.954 73.148 270.053 72.6649 270.053ZM72.656 269.061C72.9542 269.061 73.1927 268.995 73.3716 268.864C73.5565 268.733 73.6907 268.561 73.7742 268.346C73.8577 268.132 73.8994 267.9 73.8994 267.65C73.8994 267.399 73.8577 267.164 73.7742 266.944C73.6907 266.723 73.5565 266.548 73.3716 266.417C73.1927 266.28 72.9542 266.211 72.656 266.211C72.3578 266.211 72.1162 266.28 71.9314 266.417C71.7465 266.548 71.6123 266.723 71.5288 266.944C71.4453 267.164 71.4036 267.399 71.4036 267.65C71.4036 267.906 71.4453 268.141 71.5288 268.355C71.6123 268.57 71.7465 268.742 71.9314 268.873C72.1162 268.998 72.3578 269.061 72.656 269.061Z" fill="#323555"/>
<path d="M67.5323 270.053C67.2102 270.053 66.924 270.005 66.6735 269.91C66.423 269.814 66.2053 269.683 66.0204 269.517C65.8415 269.344 65.6924 269.144 65.5732 268.918C65.4539 268.686 65.3644 268.433 65.3048 268.159C65.2452 267.885 65.2153 267.596 65.2153 267.292C65.2153 266.84 65.2332 266.426 65.269 266.051C65.3108 265.669 65.3883 265.333 65.5016 265.041C65.6209 264.749 65.7968 264.502 66.0294 264.3C66.2679 264.097 66.5781 263.945 66.9597 263.844C67.1983 263.773 67.4428 263.719 67.6933 263.683C67.9438 263.642 68.2092 263.603 68.4895 263.567C68.6922 263.543 68.8562 263.523 68.9815 263.505C69.1127 263.487 69.223 263.469 69.3125 263.451C69.4079 263.433 69.4944 263.418 69.5719 263.406V264.487C69.5123 264.511 69.4467 264.529 69.3751 264.541C69.3095 264.553 69.2379 264.565 69.1604 264.577C69.0829 264.583 69.0053 264.589 68.9278 264.594C68.8503 264.6 68.7727 264.609 68.6952 264.621C68.6236 264.627 68.5521 264.633 68.4805 264.639C68.236 264.663 67.9885 264.687 67.738 264.711C67.4875 264.734 67.255 264.785 67.0403 264.862C66.8256 264.94 66.6496 265.074 66.5125 265.264C66.4528 265.342 66.3991 265.44 66.3514 265.559C66.3097 265.678 66.2769 265.803 66.253 265.934C66.2292 266.059 66.2173 266.188 66.2173 266.319C66.3485 266.128 66.5035 265.979 66.6824 265.872C66.8613 265.765 67.0492 265.687 67.246 265.64C67.4488 265.592 67.6366 265.568 67.8096 265.568C68.239 265.568 68.6028 265.663 68.901 265.854C69.1992 266.039 69.4258 266.295 69.5808 266.622C69.7359 266.944 69.8134 267.316 69.8134 267.739C69.8134 268.191 69.721 268.593 69.5361 268.945C69.3512 269.29 69.0888 269.561 68.7489 269.758C68.409 269.954 68.0034 270.053 67.5323 270.053ZM67.5412 269.088C67.8036 269.088 68.0213 269.028 68.1943 268.909C68.3732 268.784 68.5074 268.623 68.5968 268.427C68.6863 268.23 68.731 268.019 68.731 267.792C68.731 267.566 68.6863 267.361 68.5968 267.176C68.5074 266.991 68.3762 266.843 68.2032 266.729C68.0303 266.616 67.8156 266.56 67.5591 266.56C67.3086 266.56 67.0939 266.619 66.915 266.738C66.7361 266.852 66.5989 267.003 66.5035 267.194C66.4081 267.379 66.3604 267.581 66.3604 267.801C66.3604 268.022 66.4021 268.23 66.4856 268.427C66.5751 268.623 66.7063 268.784 66.8792 268.909C67.0522 269.028 67.2728 269.088 67.5412 269.088Z" fill="#323555"/>
<path d="M59.0732 269.99V265.282H60.1736V266.89H60.925C61.1934 266.89 61.4409 266.914 61.6675 266.962C61.9001 267.009 62.0999 267.09 62.2669 267.203C62.4338 267.316 62.5621 267.471 62.6515 267.667C62.7469 267.858 62.7947 268.099 62.7947 268.391C62.7947 268.683 62.741 268.93 62.6336 269.132C62.5323 269.335 62.3921 269.502 62.2132 269.633C62.0343 269.758 61.8255 269.85 61.587 269.91C61.3544 269.963 61.1069 269.99 60.8445 269.99H59.0732ZM60.1736 269.043H60.4956C60.6626 269.043 60.8177 269.037 60.9608 269.025C61.1099 269.013 61.2381 268.99 61.3455 268.954C61.4588 268.912 61.5482 268.85 61.6138 268.766C61.6794 268.683 61.7122 268.57 61.7122 268.427C61.7122 268.29 61.6854 268.183 61.6317 268.105C61.578 268.022 61.5065 267.959 61.417 267.918C61.3335 267.87 61.2381 267.84 61.1308 267.828C61.0234 267.816 60.9101 267.81 60.7908 267.81H60.1736V269.043ZM63.394 269.99V265.282H64.4854V269.99H63.394Z" fill="#323555"/>
<path d="M53.438 269.99V263.674H56.0322C56.3245 263.674 56.5928 263.701 56.8374 263.755C57.0878 263.802 57.3025 263.889 57.4815 264.014C57.6663 264.139 57.8095 264.306 57.9108 264.514C58.0122 264.723 58.0629 264.982 58.0629 265.291C58.0629 265.577 57.9973 265.839 57.8661 266.077C57.7349 266.31 57.5411 266.485 57.2846 266.604C57.6305 266.694 57.8959 266.869 58.0808 267.132C58.2657 267.388 58.3581 267.721 58.3581 268.132C58.3581 268.495 58.2895 268.799 58.1524 269.043C58.0212 269.281 57.8363 269.472 57.5977 269.615C57.3652 269.752 57.0968 269.85 56.7926 269.91C56.4885 269.963 56.1664 269.99 55.8265 269.99H53.438ZM54.5562 268.972H55.8891C56.0561 268.972 56.2201 268.96 56.3811 268.936C56.5422 268.912 56.6883 268.87 56.8195 268.811C56.9507 268.751 57.0521 268.665 57.1236 268.552C57.2012 268.433 57.2399 268.281 57.2399 268.096C57.2399 267.93 57.2101 267.793 57.1505 267.685C57.0908 267.578 57.0073 267.495 56.9 267.435C56.7986 267.37 56.6763 267.325 56.5332 267.301C56.3901 267.271 56.241 267.257 56.0859 267.257H54.5562V268.972ZM54.5562 266.319H55.737C55.9219 266.319 56.0889 266.301 56.238 266.265C56.3871 266.229 56.5153 266.176 56.6227 266.104C56.73 266.033 56.8135 265.943 56.8731 265.836C56.9328 265.723 56.9626 265.589 56.9626 265.434C56.9626 265.226 56.9149 265.071 56.8195 264.97C56.73 264.863 56.6048 264.791 56.4437 264.755C56.2827 264.714 56.1038 264.693 55.907 264.693H54.5562V266.319Z" fill="#323555"/>
<path d="M100.044 177.306C143.389 177.306 178.527 142.217 178.527 98.9339C178.527 55.6505 143.389 20.5623 100.044 20.5623C56.6987 20.5623 21.5605 55.6505 21.5605 98.9339C21.5605 142.217 56.6987 177.306 100.044 177.306Z" fill="#FF3D00"/>
<path d="M109.486 63.004H101.908C88.9263 63.004 82.4326 69.5235 82.4326 79.294C82.4326 90.1527 86.7624 95.5859 96.4962 102.105L104.074 107.539L82.4326 141.205H65.1211L85.6804 110.79C73.7723 102.105 67.2862 94.4977 67.2862 80.3822C67.2862 63.004 79.1847 51.0513 101.908 51.0513H124.631V141.205H109.486V63.004Z" fill="white"/>
<path d="M35.4734 223.525H42.4953L33.2739 212.824L42.1005 202.573H35.417L29.7487 209.079L24.0525 202.573H16.6922L25.8007 212.88L16.5513 223.525H23.3756L29.4667 216.71L35.4734 223.525ZM52.1548 223.947H53.0289C61.7426 223.947 62.7578 218.823 62.7578 216.007V215.556C62.7578 212.797 61.7426 207.474 53.0571 207.474H52.1265C43.7228 207.474 42.4256 212.797 42.4256 215.583V215.978C42.4256 218.823 43.7228 223.947 52.1548 223.947ZM52.7469 219.837H52.4367C48.8553 219.837 48.0939 217.357 48.0939 215.64C48.0939 213.866 48.8553 211.501 52.4367 211.501H52.7469C56.2154 211.501 57.0898 213.866 57.0898 215.64C57.0898 217.357 56.2154 219.837 52.7469 219.837ZM65.5927 228.904H71.0917V221.526C71.7685 222.229 73.6861 223.834 77.2678 223.834H77.6629C83.6409 223.834 85.6142 219.273 85.6142 215.865V215.387C85.6142 211.67 83.6682 207.587 77.6901 207.587H77.3243C73.7707 207.587 71.7121 209.163 71.0352 209.896V207.896H65.5927V228.904ZM79.9183 215.725C79.9183 217.33 79.1282 219.695 75.6883 219.695H75.4063C72.1069 219.695 71.0635 217.47 71.0635 215.725V215.64C71.0635 213.838 72.1069 211.67 75.4063 211.67H75.6883C79.1282 211.67 79.9183 213.951 79.9183 215.64V215.725ZM97.3757 223.947H98.2494C106.964 223.947 107.977 218.823 107.977 216.007V215.556C107.977 212.797 106.964 207.474 98.2766 207.474H97.3465C88.9437 207.474 87.6458 212.797 87.6458 215.583V215.978C87.6458 218.823 88.9437 223.947 97.3757 223.947ZM97.9672 219.837H97.6578C94.0753 219.837 93.3144 217.357 93.3144 215.64C93.3144 213.866 94.0753 211.501 97.6578 211.501H97.9672C101.435 211.501 102.311 213.866 102.311 215.64C102.311 217.357 101.435 219.837 97.9672 219.837ZM110.756 223.525H136.955V207.896H131.456V219.357H126.604V207.896H121.107V219.357H116.256V207.896H110.756V223.525ZM159.548 218.654H153.825C153.712 218.935 153.288 220.146 150.102 220.146C146.718 220.146 145.618 218.681 145.364 216.879H159.604V216.372C159.604 212.008 158.166 207.558 150.158 207.558H148.917C141.501 207.558 139.751 211.981 139.751 215.527V215.921C139.751 219.668 141.67 223.891 149.396 223.891H150.441C158.534 223.891 159.548 219.921 159.548 218.654ZM149.621 211.135C153.147 211.135 153.683 212.768 153.712 213.922H145.42C145.759 212.29 146.745 211.135 149.621 211.135ZM181.401 218.654H175.676C175.563 218.935 175.141 220.146 171.953 220.146C168.569 220.146 167.47 218.681 167.217 216.879H181.458V216.372C181.458 212.008 180.02 207.558 172.01 207.558H170.77C163.354 207.558 161.605 211.981 161.605 215.527V215.921C161.605 219.668 163.522 223.891 171.249 223.891H172.292C180.385 223.891 181.401 219.921 181.401 218.654ZM171.475 211.135C174.999 211.135 175.536 212.768 175.563 213.922H167.273C167.612 212.29 168.599 211.135 171.475 211.135ZM50.6184 236.312L55.497 246.844H59.6987L64.5773 236.312V246.844H70.0763V231.215H62.6033L57.9503 241.183L53.2972 231.215H45.5423V246.844H50.6184V236.312ZM92.4893 241.972H86.7642C86.6514 242.254 86.2291 243.465 83.0416 243.465C79.6575 243.465 78.558 241.999 78.305 240.198H92.5457V239.691C92.5457 235.326 91.1077 230.876 83.098 230.876H81.8565C74.4407 230.876 72.6924 235.299 72.6924 238.846V239.24C72.6924 242.987 74.61 247.209 82.3371 247.209H83.3802C91.4735 247.209 92.4893 243.239 92.4893 241.972ZM82.5629 234.454C86.087 234.454 86.6241 236.086 86.6514 237.24H78.3615C78.6981 235.608 79.6867 234.454 82.5629 234.454ZM114.144 240.705H108.392C108.363 241.1 107.911 243.183 104.64 243.183H104.36C101.172 243.183 100.242 240.874 100.242 238.931V238.902C100.242 236.988 101.032 234.792 104.247 234.792H104.527C107.771 234.792 108.335 236.735 108.392 237.184H114.144V237.157C114.144 234.932 112.677 230.793 105.091 230.793H103.795C95.9278 230.793 94.5462 235.89 94.5462 238.846V239.24C94.5462 242.198 95.9843 247.266 103.823 247.266H105.204C112.733 247.266 114.144 243.07 114.144 240.705ZM121.368 246.844H126.867V235.383H132.931V231.215H115.306V235.383H121.368V246.844ZM143.848 247.266H144.723C153.437 247.266 154.451 242.141 154.451 239.326V238.875C154.451 236.115 153.437 230.793 144.751 230.793H143.82C135.418 230.793 134.12 236.115 134.12 238.902V239.296C134.12 242.141 135.418 247.266 143.848 247.266ZM144.441 243.156H144.13C140.549 243.156 139.788 240.676 139.788 238.958C139.788 237.184 140.549 234.819 144.13 234.819H144.441C147.909 234.819 148.783 237.184 148.783 238.958C148.783 240.676 147.909 243.156 144.441 243.156Z" fill="#323555"/>
</svg>
