<svg width="137" height="40" viewBox="0 0 137 40" fill="none" xmlns="http://www.w3.org/2000/svg">
<path d="M38.5473 16.9069C49.8683 17.6139 61.1893 18.1877 68.5017 18.1877C75.8141 18.1877 87.1351 17.6241 98.4561 16.9069L99.1715 0.194685C89.5339 0.0614795 78.8442 0 68.5017 0C58.1591 0 47.4588 0.0614795 37.8318 0.194685L38.5473 16.9069Z" fill="#111519"/>
<path d="M0.460567 14.1101C0.755165 14.1307 18.4311 15.6165 36.6752 16.7948L35.9703 0.21582C19.8726 0.441245 7.11009 0.851108 4.63756 1.42492C0.607866 2.35736 0.0502315 5.44157 0.00814595 7.4909C-0.0128969 8.46433 -0.0128969 11.1079 0.26066 14.0795L0.460567 14.1101Z" fill="#111519"/>
<path d="M100.319 16.7841C118.563 15.616 136.239 14.1302 136.534 14.0995L136.744 14.079C137.018 11.1177 137.018 8.47409 136.986 7.50066C136.944 5.45134 136.386 2.36712 132.356 1.43468C129.873 0.860874 117.122 0.45101 101.024 0.225586L100.319 16.7841Z" fill="#111519"/>
<path d="M100.202 18.6084L98.6978 35.8842C107.946 34.2857 116.311 32.5745 119.761 31.6831C127.369 29.7157 132.041 27.5742 134.523 23.2911C135.586 21.4569 136.196 18.6596 136.554 15.9136C134.808 16.0673 117.752 17.4813 100.202 18.6084Z" fill="#111519"/>
<path d="M98.3304 18.7305C87.0514 19.4375 75.7935 20.0011 68.5022 20.0011C61.2108 20.0011 49.953 19.4375 38.6741 18.7305L40.1997 36.2112C50.8368 38.0145 62.2524 39.5925 68.5022 39.5925C74.7519 39.5925 86.1676 38.0145 96.8048 36.2112L98.3304 18.7305Z" fill="#111519"/>
<path d="M36.7901 18.608C19.2404 17.4808 2.18525 16.0668 0.449219 15.9233C0.796425 18.6694 1.41718 21.4667 2.47985 23.3008C4.95238 27.5839 9.63439 29.7255 17.2413 31.6928C20.6923 32.5842 29.0569 34.2852 38.3053 35.894L36.7901 18.608Z" fill="#111519"/>
</svg>
