<svg width="158" height="38" viewBox="0 0 158 38" fill="none" xmlns="http://www.w3.org/2000/svg">
<mask id="mask0_329_214" style="mask-type:luminance" maskUnits="userSpaceOnUse" x="0" y="0" width="158" height="38">
<path d="M0 0H158V38H0V0Z" fill="white"/>
</mask>
<g mask="url(#mask0_329_214)">
<path d="M17.3464 16.3681H37.4242C37.2537 15.1939 36.9681 14.0392 36.5715 12.9205H18.08C16.6105 12.9205 16.0228 12.3705 16.2436 11.1235L18.2196 0.736328C17.7148 0.765516 17.2114 0.814841 16.7106 0.884183L13.7817 12.0023C12.973 15.119 14.0028 16.3657 17.3444 16.3657L17.3464 16.3681Z" fill="white"/>
<path d="M16.2437 21.7981C10.845 21.7981 8.42272 18.8272 10.0737 14.1321L14.6093 1.30469C14.0548 1.44968 13.5074 1.62064 12.969 1.817L7.27999 14.8275C4.59988 20.9904 7.97886 25.2433 15.8002 25.2433H36.5283C36.9317 24.1251 37.225 22.9705 37.4039 21.7957H16.2396L16.2437 21.7981Z" fill="white"/>
<path d="M18.08 12.9204H36.5716C34.0533 5.80399 27.2603 0.705078 19.2747 0.705078C18.9203 0.705078 18.57 0.715442 18.2221 0.736169L16.2457 11.1233C16.025 12.3704 16.6126 12.92 18.0821 12.92L18.08 12.9204Z" fill="#009343"/>
<path d="M7.2844 14.8287L12.9731 1.81885C6.00862 4.3607 1.12067 10.971 0.939452 18.5388C0.843474 39.4026 29.1612 44.5578 36.5341 25.2469H15.806C7.98293 25.2469 4.60602 20.9916 7.28648 14.8307L7.2844 14.8287Z" fill="#009343"/>
<path d="M16.2437 21.7979H37.4074C37.5453 20.8941 37.616 19.9697 37.616 19.0287C37.6173 18.1388 37.5525 17.2501 37.422 16.3697H17.3449C14.0033 16.3697 12.9756 15.1226 13.7823 12.0063L16.7108 0.888184C15.9956 0.988365 15.2954 1.12758 14.6097 1.30687L10.0738 14.1336C8.42066 18.8287 10.8451 21.7999 16.2437 21.7999V21.7979ZM43.6716 20.7276C43.6716 13.1052 49.3205 7.35268 56.8414 7.35268C61.6105 7.35268 65.3894 10.1384 66.9655 14.4984L61.6836 16.0011C60.877 13.6569 58.8944 12.3369 56.3286 12.3369C51.9635 12.3369 48.8077 15.6726 48.8077 20.2506C48.8077 23.8423 51.1195 26.2242 54.8609 26.2242C57.3916 26.2242 59.6677 24.8686 60.8039 22.5599L65.4628 24.9042C63.2616 28.7888 59.0801 31.2792 54.346 31.2792C47.9636 31.2792 43.6716 26.7365 43.6716 20.7256V20.7276ZM66.5654 22.7803C66.5654 16.8447 71.0784 11.9704 76.5439 11.9704C79.1114 11.9704 81.0192 12.8492 82.2676 14.6459L83.2226 12.4847H87.2204L85.2759 30.8063H80.5438L80.8003 28.6451C79.1496 30.4397 77.0942 31.3207 74.526 31.3207C69.9776 31.3207 66.5654 27.6191 66.5654 22.7824V22.7803ZM81.5695 20.9857C81.5695 18.3101 79.6977 16.4782 76.9462 16.4782C73.7547 16.4782 71.3327 19.0055 71.3327 22.3036C71.3327 24.9788 73.1293 26.8111 75.8811 26.8111C79.1097 26.8111 81.567 24.2834 81.567 20.9857H81.5695ZM106.957 24.6499L107.763 17.0278H104.571L105.049 12.4851H108.24L108.645 8.7832L113.524 7.35475L112.974 12.4847H117.12L116.643 17.0275H112.497L111.69 24.6499C111.544 26.153 112.351 26.5924 114.185 26.5924C114.589 26.5924 115.14 26.5548 115.652 26.5199L115.175 30.8063C114.258 30.9168 113.451 30.9521 112.718 30.9521C107.948 30.9521 106.518 28.8638 106.958 24.6499H106.957ZM117.706 30.8045L119.651 12.4827H123.649L124.162 14.6438C125.592 12.9577 127.868 12.1165 129.994 12.1165L129.481 17.0254H128.71C126.105 17.0254 123.72 18.5292 123.391 21.7167L122.436 30.8042H117.704L117.706 30.8045ZM129.298 22.7074C129.298 16.7345 134.067 11.9707 140.047 11.9707C145.111 11.9707 148.779 15.6726 148.779 20.5815C148.779 26.5548 144.01 31.3186 138.03 31.3186C132.967 31.3186 129.298 27.617 129.298 22.7074ZM144.008 20.9857C144.008 18.3834 142.247 16.5884 139.568 16.5884C136.45 16.5884 134.065 19.0432 134.065 22.3057C134.065 24.9083 135.827 26.7026 138.505 26.7026C141.624 26.7026 144.008 24.2482 144.008 20.9857ZM149.88 30.8045L152.192 8.7832L157.072 7.35475L154.614 30.8063H149.882L149.88 30.8045ZM87.07 26.2635L91.8772 24.652C92.5006 26.2283 93.6388 27.0339 95.3248 27.0339C97.0115 27.0339 97.893 26.4114 97.893 25.5326C97.893 22.8947 89.1988 24.1048 89.1988 18.4248C89.1988 14.6877 92.4275 11.9766 96.83 11.9766C99.9484 11.9766 102.296 13.8092 103.25 17.0696L98.5915 18.3893C98.2242 16.9235 97.418 16.1908 96.1692 16.1908C94.9205 16.1908 94.0785 16.8862 94.0785 17.7671C94.0785 20.3694 102.884 18.8287 102.884 24.9498C102.884 28.7246 99.6189 31.3248 94.7392 31.3248C90.8873 31.3248 88.2817 29.6031 87.0724 26.2674L87.07 26.2635Z" fill="#F00023"/>
</g>
</svg>
