<svg width="104" height="32" viewBox="0 0 104 32" fill="none" xmlns="http://www.w3.org/2000/svg">
<path d="M33.8091 19.8571C33.8091 13.1498 39.2011 7.7085 45.8471 7.7085C52.4965 7.7085 57.8879 13.1498 57.8879 19.8571C57.8879 26.5692 52.4962 32 45.8471 32C39.2011 32 33.8091 26.5696 33.8091 19.8571ZM45.8374 25.4323C48.8856 25.4323 51.3535 22.94 51.3535 19.8623C51.3535 16.7874 48.8856 14.2923 45.8374 14.2923C42.7843 14.2923 40.3209 16.7874 40.3209 19.8623C40.3209 22.94 42.7843 25.4323 45.8374 25.4323Z" fill="#ED1B2D"/>
<path d="M0 0H10.0665L15.756 19.2356H15.8371L21.6185 0H31.4101V31.3306H24.9361V9.17367H24.8501L18.641 31.3306H12.6922L6.56483 9.17367H6.47851V31.3306H0V0ZM87.4657 6.1757H93.9394V0H87.4657V6.1757ZM87.4657 31.3306H93.9394V8.37811H87.4657V31.3306ZM97.5267 31.3306H104V0H97.5267V31.3306ZM60.6029 31.3306H67.0738V29.2975C68.7378 31.153 70.8368 31.8618 73.2874 31.8618C79.8068 31.8618 84.7531 26.3485 84.7531 19.9004C84.7531 13.4627 79.8495 7.85461 73.2874 7.85461C70.9259 7.85461 68.873 8.60156 67.0738 10.1514V0H60.6029V31.3306ZM67.1528 19.8619C67.1528 16.787 69.6179 14.2919 72.669 14.2919C75.72 14.2919 78.1882 16.787 78.1882 19.8619C78.1882 22.9396 75.72 25.4319 72.669 25.4319C69.6179 25.4319 67.1528 22.9396 67.1528 19.8619Z" fill="#006BB6"/>
</svg>
